<?xml version="1.0" encoding="UTF-8"?>
<svg version="1.1" xmlns="http://www.w3.org/2000/svg" width="503" height="116">
<path d="M0 0 C5.94 0 11.88 0 18 0 C18 3.63 18 7.26 18 11 C75.09 11 132.18 11 191 11 C191 7.37 191 3.74 191 0 C196.94 0 202.88 0 209 0 C209 3.63 209 7.26 209 11 C228.8 11 248.6 11 269 11 C269 7.37 269 3.74 269 0 C274.94 0 280.88 0 287 0 C287 3.63 287 7.26 287 11 C329.9 11 372.8 11 417 11 C417 21.56 417 32.12 417 43 C419.64 43 422.28 43 425 43 C425 32.44 425 21.88 425 11 C433.91 11 442.82 11 452 11 C452 14.63 452 18.26 452 22 C449.03 22 446.06 22 443 22 C443 29.26 443 36.52 443 44 C440.36 44 437.72 44 435 44 C434.67 46.97 434.34 49.94 434 53 C436.97 53 439.94 53 443 53 C443 63.56 443 74.12 443 85 C445.97 85 448.94 85 452 85 C452 88.63 452 92.26 452 96 C443.09 96 434.18 96 425 96 C425 82.14 425 68.28 425 54 C422.36 54 419.72 54 417 54 C417 67.86 417 81.72 417 96 C411.06 96 405.12 96 399 96 C399 71.58 399 47.16 399 22 C396.36 22 393.72 22 391 22 C391 25.63 391 29.26 391 33 C385.06 33 379.12 33 373 33 C373 29.37 373 25.74 373 22 C370.36 22 367.72 22 365 22 C365 39.16 365 56.32 365 74 C367.64 74 370.28 74 373 74 C373 67.07 373 60.14 373 53 C378.94 53 384.88 53 391 53 C391 63.89 391 74.78 391 86 C376.48 86 361.96 86 347 86 C347 64.88 347 43.76 347 22 C344.36 22 341.72 22 339 22 C339 43.12 339 64.24 339 86 C324.48 86 309.96 86 295 86 C295 71.81 295 57.62 295 43 C303.58 43 312.16 43 321 43 C321 36.07 321 29.14 321 22 C318.36 22 315.72 22 313 22 C313 25.63 313 29.26 313 33 C307.06 33 301.12 33 295 33 C295 29.37 295 25.74 295 22 C292.36 22 289.72 22 287 22 C287 46.42 287 70.84 287 96 C281.06 96 275.12 96 269 96 C269 71.58 269 47.16 269 22 C266.36 22 263.72 22 261 22 C261 25.63 261 29.26 261 33 C255.06 33 249.12 33 243 33 C243 29.37 243 25.74 243 22 C240.36 22 237.72 22 235 22 C235 28.93 235 35.86 235 43 C243.58 43 252.16 43 261 43 C261 57.19 261 71.38 261 86 C246.48 86 231.96 86 217 86 C217 78.74 217 71.48 217 64 C222.94 64 228.88 64 235 64 C235 67.3 235 70.6 235 74 C237.64 74 240.28 74 243 74 C243 67.4 243 60.8 243 54 C234.42 54 225.84 54 217 54 C217 43.44 217 32.88 217 22 C214.36 22 211.72 22 209 22 C209 46.42 209 70.84 209 96 C203.06 96 197.12 96 191 96 C191 71.58 191 47.16 191 22 C188.36 22 185.72 22 183 22 C183 25.63 183 29.26 183 33 C177.06 33 171.12 33 165 33 C165 29.37 165 25.74 165 22 C162.36 22 159.72 22 157 22 C157 39.16 157 56.32 157 74 C159.64 74 162.28 74 165 74 C165 67.07 165 60.14 165 53 C170.94 53 176.88 53 183 53 C183 63.89 183 74.78 183 86 C168.48 86 153.96 86 139 86 C139 64.88 139 43.76 139 22 C136.36 22 133.72 22 131 22 C131 43.12 131 64.24 131 86 C116.48 86 101.96 86 87 86 C87 71.81 87 57.62 87 43 C95.58 43 104.16 43 113 43 C113 36.07 113 29.14 113 22 C110.36 22 107.72 22 105 22 C105 25.63 105 29.26 105 33 C99.06 33 93.12 33 87 33 C87 29.37 87 25.74 87 22 C84.36 22 81.72 22 79 22 C79 29.26 79 36.52 79 44 C76.36 44 73.72 44 71 44 C70.67 46.97 70.34 49.94 70 53 C72.97 53 75.94 53 79 53 C79 63.89 79 74.78 79 86 C73.06 86 67.12 86 61 86 C61 75.44 61 64.88 61 54 C58.36 54 55.72 54 53 54 C53 64.56 53 75.12 53 86 C47.06 86 41.12 86 35 86 C35 64.88 35 43.76 35 22 C29.39 22 23.78 22 18 22 C18 42.79 18 63.58 18 85 C20.97 85 23.94 85 27 85 C27 88.63 27 92.26 27 96 C21.06 96 15.12 96 9 96 C9 92.7 9 89.4 9 86 C6.03 86 3.06 86 0 86 C0 64.88 0 43.76 0 22 C-2.97 22 -5.94 22 -9 22 C-9 18.37 -9 14.74 -9 11 C-6.03 11 -3.06 11 0 11 C0 7.37 0 3.74 0 0 Z M53 22 C53 28.93 53 35.86 53 43 C55.64 43 58.28 43 61 43 C61 36.07 61 29.14 61 22 C58.36 22 55.72 22 53 22 Z M105 54 C105 60.6 105 67.2 105 74 C107.64 74 110.28 74 113 74 C113 67.4 113 60.8 113 54 C110.36 54 107.72 54 105 54 Z M313 54 C313 60.6 313 67.2 313 74 C315.64 74 318.28 74 321 74 C321 67.4 321 60.8 321 54 C318.36 54 315.72 54 313 54 Z " fill="#000000" transform="translate(31,9)"/>
</svg>
